# xmcd
#
# Track frame offsets:
#	150
#	16477
#	32980
#	52421
#	66072
#	83185
#	99773
#	119433
#	133997
#	152697
#
# Disc length: 2218 seconds
#
# Revision: 1
# Processed by: cddbd v1.5.2PL0 Copyright (c) Steve Scherf et al.
# Submitted via: audiograbber 1.83.01
#
DISCID=8808a80a
DTITLE=John Luskey - Bear With Me
DYEAR=2009
DGENRE=Country
TTITLE0=Lord Willin'
TTITLE1=In The Mean Time
TTITLE2=The Address
TTITLE3=Ain't That Something
TTITLE4=Minivan Heaven
TTITLE5=Punching' Out
TTITLE6=In Every American
TTITLE7=It Might Hurt
TTITLE8=What I've Learned
TTITLE9=If You Want Love
EXTD=
EXTT0=
EXTT1=
EXTT2=
EXTT3=
EXTT4=
EXTT5=
EXTT6=
EXTT7=
EXTT8=
EXTT9=
PLAYORDER=
